<svg width="271" height="39" viewBox="0 0 271 39" fill="none" xmlns="http://www.w3.org/2000/svg">
<path fill-rule="evenodd" clip-rule="evenodd" d="M141.223 1.43794C138.234 3.53094 138.347 7.40694 141.456 9.44394C142.807 10.3289 144.371 10.7699 144.931 10.4239C145.492 10.0769 147.298 11.2759 148.946 13.0869C150.593 14.8989 151.955 15.8839 151.971 15.2769C151.987 14.6699 150.935 13.0239 149.634 11.6199C148.074 9.93694 147.558 8.60894 148.118 7.72394C149.458 5.60994 149.157 4.03794 147 1.88094C144.592 -0.527056 144.083 -0.566057 141.223 1.43794ZM1.655 2.70994C0.744999 3.71594 0 5.51494 0 6.70894C0 8.79194 4.968 18.8479 6 18.8559C6.275 18.8579 8.075 16.6349 10 13.9169C13.491 8.98794 13.515 8.97494 19.25 8.92794C25 8.88094 25 8.88094 25 4.88094C25 0.880944 25 0.880944 14.155 0.880944C4.919 0.880944 3.065 1.15194 1.655 2.70994ZM28 4.93794C28 8.99594 28 8.99594 32.25 8.68794C36.375 8.38994 36.509 8.27094 36.81 4.63094C37.121 0.880944 37.121 0.880944 32.56 0.880944C28 0.880944 28 0.880943 28 4.93794ZM90 5.30394C90 9.72694 90 9.72694 84.75 9.62394C77.768 9.48694 73.744 11.7119 71.102 17.1689C68.524 22.4959 68.492 25.1659 70.943 30.5649C73.876 37.0249 82.549 40.1249 87.519 36.4909C89.175 35.2799 89.261 34.7499 88.185 32.3879C87.199 30.2239 86.475 29.7959 84.596 30.2679C81.28 31.0999 77 27.5579 77 23.9829C77 20.7009 80.69 16.8809 83.86 16.8809C86.55 16.8809 91 21.0769 91 23.6129C91 24.6159 90.286 26.4549 89.413 27.7019C87.961 29.7749 87.965 30.1789 89.465 32.4689C90.948 34.7319 94.65 36.8809 97.065 36.8809C97.61 36.8809 98 29.3789 98 18.8809C98 0.880943 98 0.880944 94 0.880944C90 0.880944 90 0.880944 90 5.30394ZM103 18.7759C103 36.6709 103 36.6709 107 37.0519C111 37.4339 111 37.4339 111 19.1569C111 0.880945 111 0.880944 107 0.880944C103 0.880944 103 0.880943 103 18.7759ZM263 18.8809C263 36.8809 263 36.8809 267 36.8809C271 36.8809 271 36.8809 271 18.8809C271 0.880943 271 0.880944 267 0.880944C263 0.880944 263 0.880943 263 18.8809ZM147.399 4.19394C148.963 6.76894 144.731 10.3419 141.907 8.83094C140.04 7.83194 139.301 3.91394 140.713 2.50194C141.975 1.23994 146.264 2.32494 147.399 4.19394ZM8 5.38094C8.993 6.57794 8.993 7.18394 8 8.38094C6.399 10.3099 4.1 10.3039 3.357 8.36794C2.782 6.87094 4.543 3.88094 6 3.88094C6.415 3.88094 7.315 4.55594 8 5.38094ZM48.325 10.3399C43.029 12.6439 41.608 15.9589 41.163 27.0429C40.767 36.8809 40.767 36.8809 44.884 36.8809C49 36.8809 49 36.8809 49 28.9919C49 20.0069 50.904 16.0809 54.68 17.2789C56.913 17.9879 58 22.8149 58 32.0209C58 36.8809 58 36.8809 62.134 36.8809C66.267 36.8809 66.267 36.8809 65.789 26.9419C65.246 15.6619 63.881 12.5649 58.454 10.2969C54.29 8.55794 52.405 8.56594 48.325 10.3399ZM124.5 9.73094C117.649 11.9579 116 15.3289 116 27.1039C116 36.8809 116 36.8809 120 36.8809C124 36.8809 124 36.8809 124 28.8149C124 19.9919 125.043 16.8809 128 16.8809C130.957 16.8809 132 19.9919 132 28.8149C132 36.8809 132 36.8809 136 36.8809C140 36.8809 140 36.8809 140 27.7819C140 17.0069 138.42 12.7829 133.522 10.4579C130.054 8.81294 127.866 8.63594 124.5 9.73094ZM176.676 10.2999C174.572 11.0679 172.743 11.8509 172.612 12.0389C172.48 12.2269 171.388 13.6789 170.186 15.2659C167.281 19.0999 167.199 26.8489 170.016 31.4069C176.897 42.5409 194.489 38.2589 195.749 25.1419C196.807 14.1329 187.025 6.52094 176.676 10.2999ZM207.02 10.5839C201.512 13.4279 198.74 18.3609 199.228 24.4509C199.695 30.2779 202.102 34.1349 206.651 36.3479C213.58 39.7189 221.715 36.8819 225.254 29.8609C227.008 26.3809 227.008 26.3809 223.395 26.0639C220.647 25.8229 219.435 26.2419 218.334 27.8139C216.296 30.7239 210.641 30.6339 208.557 27.6579C206.433 24.6269 206.602 21.2789 209 18.8809C211.708 16.1729 215.167 16.3649 218 19.3809C220.823 22.3859 226.002 22.8719 225.996 20.1309C225.991 17.7059 222.506 12.2219 220.179 10.9769C216.267 8.88294 210.641 8.71494 207.02 10.5839ZM239.686 9.92894C235.879 11.0289 234.204 12.5609 231.927 17.0239C229.464 21.8509 229.494 25.2029 232.044 30.4719C234.628 35.8089 239.4 38.3249 245.352 37.4889C247.633 37.1679 251.413 36.9209 253.75 36.9389C258 36.9729 258 36.9729 258 23.8959C258 14.3049 257.667 10.7159 256.75 10.4339C253.795 9.52494 242.265 9.18394 239.686 9.92894ZM28 23.8809C28 36.8809 28 36.8809 32.5 36.8809C37 36.8809 37 36.8809 37 23.8809C37 10.8809 37 10.8809 32.5 10.8809C28 10.8809 28 10.8809 28 23.8809ZM144 24.3459C144 36.8809 144 36.8809 154.5 36.8809C165 36.8809 165 36.8809 165 32.8809C165 28.8809 165 28.8809 158.5 28.8809C152 28.8809 152 28.8809 152 24.0159C152 18.9399 149.815 14.9229 145.922 12.8389C144.073 11.8499 144 12.2889 144 24.3459ZM7.567 19.1759C5.506 22.6929 5 24.8699 5 30.2189C5 36.8809 5 36.8809 9 36.8809C13 36.8809 13 36.8809 13 30.4309C13 23.9809 13 23.9809 18.75 23.6809C24.5 23.3809 24.5 23.3809 24.5 19.3809C24.5 15.3809 24.5 15.3809 17.317 15.0889C10.134 14.7959 10.134 14.7959 7.567 19.1759ZM185.365 18.9539C188.532 21.4439 188.791 25.0899 186 27.8809C183.585 30.2959 181.212 30.4189 178.168 28.2859C174.944 26.0279 175.443 19.9589 179 18.1689C182.259 16.5279 182.286 16.5319 185.365 18.9539ZM248.365 18.9539C251.449 21.3799 251.758 24.7239 249.19 27.8949C245.6 32.3279 238 29.5459 238 23.7989C238 21.0209 241.89 16.8809 244.5 16.8809C245.177 16.8809 246.916 17.8139 248.365 18.9539Z" fill="black"/>
</svg>
